<svg xmlns="http://www.w3.org/2000/svg" width="192" height="192" viewBox="0 0 512 512" role="img" aria-label="Cloud Vault">
  <defs>
    <linearGradient id="bg" x1="86" y1="70" x2="426" y2="442" gradientUnits="userSpaceOnUse">
      <stop stop-color="#0B1220"/>
      <stop offset="0.54" stop-color="#111827"/>
      <stop offset="1" stop-color="#07131F"/>
    </linearGradient>
    <radialGradient id="glow" cx="0" cy="0" r="1" gradientUnits="userSpaceOnUse" gradientTransform="translate(252 190) rotate(90) scale(236)">
      <stop stop-color="#2DD4BF" stop-opacity="0.34"/>
      <stop offset="0.56" stop-color="#38BDF8" stop-opacity="0.12"/>
      <stop offset="1" stop-color="#020617" stop-opacity="0"/>
    </radialGradient>
    <linearGradient id="ring" x1="184" y1="180" x2="340" y2="344" gradientUnits="userSpaceOnUse">
      <stop stop-color="#A7F3D0"/>
      <stop offset="0.46" stop-color="#38BDF8"/>
      <stop offset="1" stop-color="#2563EB"/>
    </linearGradient>
    <linearGradient id="gold" x1="211" y1="236" x2="303" y2="330" gradientUnits="userSpaceOnUse">
      <stop stop-color="#FDE68A"/>
      <stop offset="1" stop-color="#F59E0B"/>
    </linearGradient>
    <filter id="shadow" x="60" y="72" width="392" height="376" color-interpolation-filters="sRGB" filterUnits="userSpaceOnUse">
      <feDropShadow dx="0" dy="18" stdDeviation="18" flood-color="#020617" flood-opacity="0.42"/>
    </filter>
  </defs>
  <rect width="512" height="512" rx="116" fill="url(#bg)"/>
  <rect x="20" y="20" width="472" height="472" rx="100" fill="url(#glow)"/>
  <rect x="32" y="32" width="448" height="448" rx="90" fill="none" stroke="#E2E8F0" stroke-opacity="0.08" stroke-width="2"/>
  <g filter="url(#shadow)">
    <path d="M149 274c-23 0-41-18-41-41 0-21 16-38 36-41 14-48 58-82 111-82 43 0 80 23 100 57 9-3 18-5 28-5 47 0 85 38 85 85s-38 85-85 85H161" fill="none" stroke="#DFF9FF" stroke-linecap="round" stroke-linejoin="round" stroke-opacity="0.9" stroke-width="30"/>
    <circle cx="256" cy="286" r="82" fill="#07111F" stroke="url(#ring)" stroke-width="22"/>
    <circle cx="256" cy="286" r="49" fill="none" stroke="#E2E8F0" stroke-opacity="0.12" stroke-width="10"/>
    <path d="M211 257l45 61 45-61" fill="none" stroke="url(#gold)" stroke-linecap="round" stroke-linejoin="round" stroke-width="28"/>
    <circle cx="256" cy="286" r="13" fill="#F8FAFC"/>
    <path d="M256 206v28M334 286h-28M256 366v-28M178 286h28" stroke="#BAE6FD" stroke-linecap="round" stroke-opacity="0.88" stroke-width="13"/>
  </g>
</svg>
